<svg height="2798" width="720" xmlns="http://www.w3.org/2000/svg">
<rect height="2798" fill="#555" width="720"></rect>
<text fill="#7f7" font-family="Courier New" font-size="12" xml:space="preserve">
<tspan x="10" y="26">13 megabytes installed</tspan>
<tspan x="10" y="42"></tspan>
<tspan x="10" y="58">node_modules</tspan>
<tspan x="10" y="74">└─┬ serve@5.1.3 </tspan>
<tspan x="10" y="90">  ├─┬ args@2.4.1 </tspan>
<tspan x="10" y="106">  │ ├── camelcase@4.0.0 </tspan>
<tspan x="10" y="122">  │ ├── minimist@1.2.0 </tspan>
<tspan x="10" y="138">  │ └── pkginfo@0.4.0 </tspan>
<tspan x="10" y="154">  ├── basic-auth@1.1.0 </tspan>
<tspan x="10" y="170">  ├── bluebird@3.5.0 </tspan>
<tspan x="10" y="186">  ├─┬ boxen@1.0.0 </tspan>
<tspan x="10" y="202">  │ ├─┬ ansi-align@1.1.0 </tspan>
<tspan x="10" y="218">  │ │ └─┬ string-width@1.0.2 </tspan>
<tspan x="10" y="234">  │ │   ├── code-point-at@1.1.0 </tspan>
<tspan x="10" y="250">  │ │   └─┬ is-fullwidth-code-point@1.0.0 </tspan>
<tspan x="10" y="266">  │ │     └── number-is-nan@1.0.1 </tspan>
<tspan x="10" y="282">  │ ├── cli-boxes@1.0.0 </tspan>
<tspan x="10" y="298">  │ ├─┬ string-width@2.0.0 </tspan>
<tspan x="10" y="314">  │ │ └── is-fullwidth-code-point@2.0.0 </tspan>
<tspan x="10" y="330">  │ ├─┬ term-size@0.1.1 </tspan>
<tspan x="10" y="346">  │ │ └─┬ execa@0.4.0 </tspan>
<tspan x="10" y="362">  │ │   ├── cross-spawn-async@2.2.5 </tspan>
<tspan x="10" y="378">  │ │   ├── npm-run-path@1.0.0 </tspan>
<tspan x="10" y="394">  │ │   └── path-key@1.0.0 </tspan>
<tspan x="10" y="410">  │ └─┬ widest-line@1.0.0 </tspan>
<tspan x="10" y="426">  │   └── string-width@1.0.2 </tspan>
<tspan x="10" y="442">  ├─┬ chalk@1.1.3 </tspan>
<tspan x="10" y="458">  │ ├── ansi-styles@2.2.1 </tspan>
<tspan x="10" y="474">  │ ├── escape-string-regexp@1.0.5 </tspan>
<tspan x="10" y="490">  │ ├─┬ has-ansi@2.0.0 </tspan>
<tspan x="10" y="506">  │ │ └── ansi-regex@2.1.1 </tspan>
<tspan x="10" y="522">  │ ├── strip-ansi@3.0.1 </tspan>
<tspan x="10" y="538">  │ └── supports-color@2.0.0 </tspan>
<tspan x="10" y="554">  ├─┬ clipboardy@1.1.0 </tspan>
<tspan x="10" y="570">  │ └─┬ execa@0.6.3 </tspan>
<tspan x="10" y="586">  │   ├─┬ cross-spawn@5.1.0 </tspan>
<tspan x="10" y="602">  │   │ ├─┬ lru-cache@4.0.2 </tspan>
<tspan x="10" y="618">  │   │ │ ├── pseudomap@1.0.2 </tspan>
<tspan x="10" y="634">  │   │ │ └── yallist@2.1.2 </tspan>
<tspan x="10" y="650">  │   │ ├─┬ shebang-command@1.2.0 </tspan>
<tspan x="10" y="666">  │   │ │ └── shebang-regex@1.0.0 </tspan>
<tspan x="10" y="682">  │   │ └─┬ which@1.2.14 </tspan>
<tspan x="10" y="698">  │   │   └── isexe@2.0.0 </tspan>
<tspan x="10" y="714">  │   ├── get-stream@3.0.0 </tspan>
<tspan x="10" y="730">  │   ├── is-stream@1.1.0 </tspan>
<tspan x="10" y="746">  │   ├─┬ npm-run-path@2.0.2 </tspan>
<tspan x="10" y="762">  │   │ └── path-key@2.0.1 </tspan>
<tspan x="10" y="778">  │   ├── p-finally@1.0.0 </tspan>
<tspan x="10" y="794">  │   ├── signal-exit@3.0.2 </tspan>
<tspan x="10" y="810">  │   └── strip-eof@1.0.0 </tspan>
<tspan x="10" y="826">  ├── dargs@5.1.0 </tspan>
<tspan x="10" y="842">  ├─┬ detect-port@1.1.1 </tspan>
<tspan x="10" y="858">  │ └── debug@2.6.3 </tspan>
<tspan x="10" y="874">  ├── filesize@3.5.6 </tspan>
<tspan x="10" y="890">  ├─┬ fs-promise@2.0.2 </tspan>
<tspan x="10" y="906">  │ ├── any-promise@1.3.0 </tspan>
<tspan x="10" y="922">  │ ├─┬ fs-extra@2.1.2 </tspan>
<tspan x="10" y="938">  │ │ ├── graceful-fs@4.1.11 </tspan>
<tspan x="10" y="954">  │ │ └── jsonfile@2.4.0 </tspan>
<tspan x="10" y="970">  │ ├─┬ mz@2.6.0 </tspan>
<tspan x="10" y="986">  │ │ └── object-assign@4.1.1 </tspan>
<tspan x="10" y="1002">  │ └─┬ thenify-all@1.6.0 </tspan>
<tspan x="10" y="1018">  │   └── thenify@3.2.1 </tspan>
<tspan x="10" y="1034">  ├─┬ handlebars@4.0.6 </tspan>
<tspan x="10" y="1050">  │ ├── async@1.5.2 </tspan>
<tspan x="10" y="1066">  │ ├─┬ optimist@0.6.1 </tspan>
<tspan x="10" y="1082">  │ │ ├── minimist@0.0.10 </tspan>
<tspan x="10" y="1098">  │ │ └── wordwrap@0.0.3 </tspan>
<tspan x="10" y="1114">  │ ├─┬ source-map@0.4.4 </tspan>
<tspan x="10" y="1130">  │ │ └── amdefine@1.0.1 </tspan>
<tspan x="10" y="1146">  │ └─┬ uglify-js@2.8.22 </tspan>
<tspan x="10" y="1162">  │   ├── source-map@0.5.6 </tspan>
<tspan x="10" y="1178">  │   ├── uglify-to-browserify@1.0.2 </tspan>
<tspan x="10" y="1194">  │   └─┬ yargs@3.10.0 </tspan>
<tspan x="10" y="1210">  │     ├── camelcase@1.2.1 </tspan>
<tspan x="10" y="1226">  │     ├─┬ cliui@2.1.0 </tspan>
<tspan x="10" y="1242">  │     │ ├─┬ center-align@0.1.3 </tspan>
<tspan x="10" y="1258">  │     │ │ ├─┬ align-text@0.1.4 </tspan>
<tspan x="10" y="1274">  │     │ │ │ ├─┬ kind-of@3.1.0 </tspan>
<tspan x="10" y="1290">  │     │ │ │ │ └── is-buffer@1.1.5 </tspan>
<tspan x="10" y="1306">  │     │ │ │ ├── longest@1.0.1 </tspan>
<tspan x="10" y="1322">  │     │ │ │ └── repeat-string@1.6.1 </tspan>
<tspan x="10" y="1338">  │     │ │ └── lazy-cache@1.0.4 </tspan>
<tspan x="10" y="1354">  │     │ ├── right-align@0.1.3 </tspan>
<tspan x="10" y="1370">  │     │ └── wordwrap@0.0.2 </tspan>
<tspan x="10" y="1386">  │     ├── decamelize@1.2.0 </tspan>
<tspan x="10" y="1402">  │     └── window-size@0.1.0 </tspan>
<tspan x="10" y="1418">  ├── ip@1.1.5 </tspan>
<tspan x="10" y="1434">  ├─┬ micro@7.3.0 </tspan>
<tspan x="10" y="1450">  │ ├── args@2.4.0 </tspan>
<tspan x="10" y="1466">  │ ├─┬ async-to-gen@1.3.2 </tspan>
<tspan x="10" y="1482">  │ │ ├── babylon@6.16.1 </tspan>
<tspan x="10" y="1498">  │ │ └─┬ magic-string@0.19.0 </tspan>
<tspan x="10" y="1514">  │ │   └── vlq@0.2.1 </tspan>
<tspan x="10" y="1530">  │ ├─┬ clipboardy@1.0.2 </tspan>
<tspan x="10" y="1546">  │ │ └─┬ execa@0.6.3 </tspan>
<tspan x="10" y="1562">  │ │   └─┬ npm-run-path@2.0.2 </tspan>
<tspan x="10" y="1578">  │ │     └── path-key@2.0.1 </tspan>
<tspan x="10" y="1594">  │ ├── is-async-supported@1.2.0 </tspan>
<tspan x="10" y="1610">  │ ├── isstream@0.1.2 </tspan>
<tspan x="10" y="1626">  │ ├── media-typer@0.3.0 </tspan>
<tspan x="10" y="1642">  │ └─┬ raw-body@2.2.0 </tspan>
<tspan x="10" y="1658">  │   ├── bytes@2.4.0 </tspan>
<tspan x="10" y="1674">  │   ├── iconv-lite@0.4.15 </tspan>
<tspan x="10" y="1690">  │   └── unpipe@1.0.0 </tspan>
<tspan x="10" y="1706">  ├─┬ micro-compress@1.0.0 </tspan>
<tspan x="10" y="1722">  │ └─┬ compression@1.6.2 </tspan>
<tspan x="10" y="1738">  │   ├─┬ accepts@1.3.3 </tspan>
<tspan x="10" y="1754">  │   │ └── negotiator@0.6.1 </tspan>
<tspan x="10" y="1770">  │   ├── bytes@2.3.0 </tspan>
<tspan x="10" y="1786">  │   ├── compressible@2.0.10 </tspan>
<tspan x="10" y="1802">  │   ├─┬ debug@2.2.0 </tspan>
<tspan x="10" y="1818">  │   │ └── ms@0.7.1 </tspan>
<tspan x="10" y="1834">  │   ├── on-headers@1.0.1 </tspan>
<tspan x="10" y="1850">  │   └── vary@1.1.1 </tspan>
<tspan x="10" y="1866">  ├─┬ mime-types@2.1.15 </tspan>
<tspan x="10" y="1882">  │ └── mime-db@1.27.0 </tspan>
<tspan x="10" y="1898">  ├── node-version@1.0.0 </tspan>
<tspan x="10" y="1914">  ├─┬ path-type@2.0.0 </tspan>
<tspan x="10" y="1930">  │ └── pify@2.3.0 </tspan>
<tspan x="10" y="1946">  ├─┬ send@0.15.1 </tspan>
<tspan x="10" y="1962">  │ ├── debug@2.6.1 </tspan>
<tspan x="10" y="1978">  │ ├── depd@1.1.0 </tspan>
<tspan x="10" y="1994">  │ ├── destroy@1.0.4 </tspan>
<tspan x="10" y="2010">  │ ├── encodeurl@1.0.1 </tspan>
<tspan x="10" y="2026">  │ ├── escape-html@1.0.3 </tspan>
<tspan x="10" y="2042">  │ ├── etag@1.8.0 </tspan>
<tspan x="10" y="2058">  │ ├── fresh@0.5.0 </tspan>
<tspan x="10" y="2074">  │ ├─┬ http-errors@1.6.1 </tspan>
<tspan x="10" y="2090">  │ │ ├── inherits@2.0.3 </tspan>
<tspan x="10" y="2106">  │ │ └── setprototypeof@1.0.3 </tspan>
<tspan x="10" y="2122">  │ ├── mime@1.3.4 </tspan>
<tspan x="10" y="2138">  │ ├── ms@0.7.2 </tspan>
<tspan x="10" y="2154">  │ ├─┬ on-finished@2.3.0 </tspan>
<tspan x="10" y="2170">  │ │ └── ee-first@1.1.1 </tspan>
<tspan x="10" y="2186">  │ ├── range-parser@1.2.0 </tspan>
<tspan x="10" y="2202">  │ └── statuses@1.3.1 </tspan>
<tspan x="10" y="2218">  └─┬ update-notifier@2.1.0 </tspan>
<tspan x="10" y="2234">    ├─┬ configstore@3.0.0 </tspan>
<tspan x="10" y="2250">    │ ├─┬ dot-prop@4.1.1 </tspan>
<tspan x="10" y="2266">    │ │ └── is-obj@1.0.1 </tspan>
<tspan x="10" y="2282">    │ ├─┬ mkdirp@0.5.1 </tspan>
<tspan x="10" y="2298">    │ │ └── minimist@0.0.8 </tspan>
<tspan x="10" y="2314">    │ ├─┬ unique-string@1.0.0 </tspan>
<tspan x="10" y="2330">    │ │ └── crypto-random-string@1.0.0 </tspan>
<tspan x="10" y="2346">    │ └─┬ write-file-atomic@1.3.1 </tspan>
<tspan x="10" y="2362">    │   ├── imurmurhash@0.1.4 </tspan>
<tspan x="10" y="2378">    │   └── slide@1.1.6 </tspan>
<tspan x="10" y="2394">    ├── is-npm@1.0.0 </tspan>
<tspan x="10" y="2410">    ├─┬ latest-version@3.1.0 </tspan>
<tspan x="10" y="2426">    │ └─┬ package-json@4.0.0 </tspan>
<tspan x="10" y="2442">    │   ├─┬ got@6.7.1 </tspan>
<tspan x="10" y="2458">    │   │ ├─┬ create-error-class@3.0.2 </tspan>
<tspan x="10" y="2474">    │   │ │ └── capture-stack-trace@1.0.0 </tspan>
<tspan x="10" y="2490">    │   │ ├── duplexer3@0.1.4 </tspan>
<tspan x="10" y="2506">    │   │ ├── is-redirect@1.0.0 </tspan>
<tspan x="10" y="2522">    │   │ ├── is-retry-allowed@1.1.0 </tspan>
<tspan x="10" y="2538">    │   │ ├── lowercase-keys@1.0.0 </tspan>
<tspan x="10" y="2554">    │   │ ├── safe-buffer@5.0.1 </tspan>
<tspan x="10" y="2570">    │   │ ├── timed-out@4.0.1 </tspan>
<tspan x="10" y="2586">    │   │ ├── unzip-response@2.0.1 </tspan>
<tspan x="10" y="2602">    │   │ └─┬ url-parse-lax@1.0.0 </tspan>
<tspan x="10" y="2618">    │   │   └── prepend-http@1.0.4 </tspan>
<tspan x="10" y="2634">    │   ├─┬ registry-auth-token@3.1.2 </tspan>
<tspan x="10" y="2650">    │   │ └─┬ rc@1.2.1 </tspan>
<tspan x="10" y="2666">    │   │   ├── deep-extend@0.4.1 </tspan>
<tspan x="10" y="2682">    │   │   ├── ini@1.3.4 </tspan>
<tspan x="10" y="2698">    │   │   └── strip-json-comments@2.0.1 </tspan>
<tspan x="10" y="2714">    │   └── registry-url@3.1.0 </tspan>
<tspan x="10" y="2730">    ├── lazy-req@2.0.0 </tspan>
<tspan x="10" y="2746">    ├─┬ semver-diff@2.1.0 </tspan>
<tspan x="10" y="2762">    │ └── semver@5.3.0 </tspan>
<tspan x="10" y="2778">    └── xdg-basedir@3.0.0</tspan>
</text>
</svg>
